<svg id="Logo_Feegow_2020_-_svg" data-name="Logo Feegow 2020 - svg" xmlns="http://www.w3.org/2000/svg" xmlns:xlink="http://www.w3.org/1999/xlink" width="96.481" height="26.064" viewBox="0 0 96.481 26.064">
  <defs>
    <linearGradient id="linear-gradient" x1="-0.172" y1="1.128" x2="0.734" y2="0.284" gradientUnits="objectBoundingBox">
      <stop offset="0" stop-color="#17df93"/>
      <stop offset="1" stop-color="#00b4fc"/>
    </linearGradient>
  </defs>
  <g id="icone">
    <g id="Grupo_1" data-name="Grupo 1" transform="translate(0)">
      <path id="Caminho_1" data-name="Caminho 1" d="M46.5,33.858a.973.973,0,0,0,.964-.964V29.529A5.337,5.337,0,0,0,42.137,24.2H27.729A5.337,5.337,0,0,0,22.4,29.529v7.2a.973.973,0,0,0,.964.964h6.643l2.4,5.714a.963.963,0,0,0,1.823-.123l2.559-9.833,1.542,3.663a1,1,0,0,0,.894.6h6.31v6.24a3.385,3.385,0,0,1-3.383,3.383H27.729a3.385,3.385,0,0,1-3.383-3.383V40.606a.964.964,0,0,0-1.928,0v3.348a5.337,5.337,0,0,0,5.329,5.329H42.172A5.337,5.337,0,0,0,47.5,43.954v-7.2a.973.973,0,0,0-.964-.964H39.858l-2.4-5.714a.98.98,0,0,0-.964-.6.953.953,0,0,0-.859.719l-2.559,9.833-1.542-3.663a.97.97,0,0,0-.894-.6h-6.31v-6.24a3.385,3.385,0,0,1,3.383-3.383H42.137a3.385,3.385,0,0,1,3.383,3.383v3.365A1,1,0,0,0,46.5,33.858Z" transform="translate(-22.4 -24.2)" fill="url(#linear-gradient)"/>
    </g>
  </g>
  <g id="ícone_em_linha" transform="translate(0.964 0.947)">
    <path id="Caminho_2" data-name="Caminho 2" d="M27.9,45.042v3.313a4.414,4.414,0,0,0,4.4,4.4H46.673a4.414,4.414,0,0,0,4.4-4.4V41.169H43.781l-2.647-6.31L37.856,47.444l-2.664-6.275-7.292.018V34a4.414,4.414,0,0,1,4.4-4.4H46.673a4.414,4.414,0,0,1,4.4,4.4v3.313" transform="translate(-27.9 -29.6)" fill="none"/>
  </g>
  <g id="feegow" transform="translate(29.342 4.4)">
    <g id="Grupo_3" data-name="Grupo 3" transform="translate(0 0)">
      <g id="Grupo_2" data-name="Grupo 2">
        <path id="Caminho_3" data-name="Caminho 3" d="M196.9,50.089l-.158.841c-.035.245-.123.438-.333.351a5.413,5.413,0,0,0-1.542-.3c-1.192,0-1.683.543-1.683,2.174V54.8h2.612a.3.3,0,0,1,.333.333v.947a.3.3,0,0,1-.333.333H193.2v8.817a.3.3,0,0,1-.333.333h-1.28a.3.3,0,0,1-.333-.333V56.416h-1.122a.3.3,0,0,1-.333-.333V55.26l1.455-.368v-2.1c0-2.121,1.069-3.488,3.12-3.488a6.376,6.376,0,0,1,2.209.456C196.759,49.826,196.951,49.913,196.9,50.089Z" transform="translate(-189.8 -49.3)" fill="#052b3b"/>
        <path id="Caminho_4" data-name="Caminho 4" d="M239.456,83.973v.018c0,.911-.351,1.472-1.472,1.472l-6.5.035c.175,2.4,1.56,3.19,3.646,3.138a5.79,5.79,0,0,0,3.19-1.209c.175-.123.333,0,.456.21l.456.771c.088.175-.018.3-.193.4a6.8,6.8,0,0,1-4.294,1.49c-2.384,0-5.241-1.315-5.241-5.591,0-3.751,2-5.609,5.048-5.609A4.613,4.613,0,0,1,239.456,83.973Zm-1.928,0c-.123-2.086-.894-3.12-3.05-3.12-1.823,0-2.822.894-3,3.12Z" transform="translate(-222.541 -73.877)" fill="#052b3b"/>
        <path id="Caminho_5" data-name="Caminho 5" d="M303.756,83.973v.018c0,.911-.351,1.472-1.472,1.472l-6.5.035c.175,2.4,1.56,3.19,3.646,3.138a5.79,5.79,0,0,0,3.19-1.209c.175-.123.333,0,.456.21l.456.771c.088.175-.018.3-.193.4a6.8,6.8,0,0,1-4.294,1.49c-2.384,0-5.241-1.315-5.241-5.591,0-3.751,2-5.609,5.048-5.609A4.613,4.613,0,0,1,303.756,83.973Zm-1.928,0c-.123-2.086-.894-3.12-3.05-3.12-1.823,0-2.822.894-3,3.12Z" transform="translate(-275.571 -73.877)" fill="#052b3b"/>
        <path id="Caminho_6" data-name="Caminho 6" d="M367.9,79.926v9.009c0,5.153-1.525,6.854-5.679,6.854a10.178,10.178,0,0,1-3.032-.526c-.158-.035-.351-.158-.3-.333l.158-.859c.035-.245.123-.4.333-.351a11.107,11.107,0,0,0,2.629.438c3.05,0,3.979-1.069,3.979-4.575V88.8a5.024,5.024,0,0,1-3.576,1.805c-3.453,0-4.312-3.138-4.312-5.591,0-3.576,2.138-5.609,5.381-5.609,1.069,0,2.769.088,4.119.21A.29.29,0,0,1,367.9,79.926ZM365.97,87.06V81.188c-.911-.07-1.805-.088-2.542-.088-2.121,0-3.383,1.174-3.383,3.891,0,1.56.351,3.874,2.717,3.874C363.972,88.883,365.234,87.814,365.97,87.06Z" transform="translate(-328.6 -74.124)" fill="#052b3b"/>
        <path id="Caminho_7" data-name="Caminho 7" d="M424.4,85.009c0-4.067,2.226-5.609,5.329-5.609,3.085,0,5.311,1.665,5.311,5.609,0,3.611-2.226,5.591-5.311,5.591C426.626,90.6,424.4,88.62,424.4,85.009Zm8.659,0c0-2.84-1.3-3.891-3.33-3.891-2.051,0-3.365,1.069-3.365,3.891,0,2.787,1.3,3.891,3.365,3.891C431.762,88.9,433.059,87.8,433.059,85.009Z" transform="translate(-383.279 -74.124)" fill="#052b3b"/>
        <path id="Caminho_8" data-name="Caminho 8" d="M503.809,80.968,500.285,91.1a.359.359,0,0,1-.368.263H498.6a.359.359,0,0,1-.368-.263L496.5,86.051,494.764,91.1a.359.359,0,0,1-.368.263h-1.315a.359.359,0,0,1-.368-.263L489.19,80.968c-.07-.21.018-.368.263-.368h1.437a.335.335,0,0,1,.368.263l2.577,8.238,1.805-5.521-.894-2.594c-.07-.21.018-.368.263-.368h1.28a.335.335,0,0,1,.368.263l2.559,8.186,2.542-8.2a.335.335,0,0,1,.368-.263h1.437C503.791,80.6,503.879,80.758,503.809,80.968Z" transform="translate(-436.693 -75.114)" fill="#052b3b"/>
      </g>
    </g>
  </g>
</svg>
